<svg xmlns="http://www.w3.org/2000/svg" width="1180" height="610" viewBox="0 0 1180 610" fill="none" role="img" aria-label="Asanuri — AI Fullstack developer profile banner">
  <title>Asanuri — reitar0</title>

  <!-- ============================ DEFS ============================ -->
  <defs>
    <clipPath id="cardClip"><rect x="0" y="0" width="1180" height="610" rx="28"/></clipPath>
    <clipPath id="leftClip"><rect x="22" y="22" width="430" height="566" rx="22"/></clipPath>

    <linearGradient id="bgGrad" x1="0" y1="0" x2="1" y2="1">
      <stop offset="0" stop-color="#ffffff"/>
      <stop offset="0.55" stop-color="#f4f7fc"/>
      <stop offset="1" stop-color="#eaf0f8"/>
    </linearGradient>

    <linearGradient id="panelGrad" x1="0" y1="0" x2="0.6" y2="1">
      <stop offset="0" stop-color="#ffffff"/>
      <stop offset="1" stop-color="#eef3fa"/>
    </linearGradient>
    <linearGradient id="glassEdge" x1="0" y1="0" x2="0" y2="1">
      <stop offset="0" stop-color="#ffffff" stop-opacity="0.9"/>
      <stop offset="0.14" stop-color="#ffffff" stop-opacity="0.1"/>
      <stop offset="1" stop-color="#ffffff" stop-opacity="0"/>
    </linearGradient>

    <linearGradient id="accentText" x1="0" y1="0" x2="1" y2="0">
      <stop offset="0" stop-color="#2563EB"/>
      <stop offset="0.5" stop-color="#06B6D4"/>
      <stop offset="1" stop-color="#10B981"/>
      <animateTransform attributeName="gradientTransform" type="translate" values="-0.25 0;0.25 0;-0.25 0" dur="7s" repeatCount="indefinite"/>
    </linearGradient>

    <linearGradient id="asciiGrad" x1="0" y1="0" x2="1" y2="1" spreadMethod="reflect">
      <stop offset="0" stop-color="#2563EB"/>
      <stop offset="0.45" stop-color="#06B6D4"/>
      <stop offset="1" stop-color="#059669"/>
      <animateTransform attributeName="gradientTransform" type="translate" values="-0.4 -0.2;0.4 0.2;-0.4 -0.2" dur="8s" repeatCount="indefinite"/>
    </linearGradient>

    <linearGradient id="pillGrad" x1="0" y1="0" x2="1" y2="1">
      <stop offset="0" stop-color="#2563EB" stop-opacity="0.12"/>
      <stop offset="1" stop-color="#06B6D4" stop-opacity="0.08"/>
    </linearGradient>

    <linearGradient id="borderShimmer" x1="0" y1="0" x2="1" y2="0">
      <stop offset="0" stop-color="#2563EB"/>
      <stop offset="0.5" stop-color="#06B6D4"/>
      <stop offset="1" stop-color="#10B981"/>
    </linearGradient>

    <linearGradient id="scanGrad" x1="0" y1="0" x2="0" y2="1">
      <stop offset="0" stop-color="#06B6D4" stop-opacity="0"/>
      <stop offset="0.5" stop-color="#06B6D4" stop-opacity="0.14"/>
      <stop offset="1" stop-color="#06B6D4" stop-opacity="0"/>
    </linearGradient>

    <radialGradient id="blobViolet"><stop offset="0" stop-color="#2563EB" stop-opacity="0.30"/><stop offset="1" stop-color="#2563EB" stop-opacity="0"/></radialGradient>
    <radialGradient id="blobCyan"><stop offset="0" stop-color="#06B6D4" stop-opacity="0.28"/><stop offset="1" stop-color="#06B6D4" stop-opacity="0"/></radialGradient>
    <radialGradient id="blobEmerald"><stop offset="0" stop-color="#10B981" stop-opacity="0.24"/><stop offset="1" stop-color="#10B981" stop-opacity="0"/></radialGradient>

    <filter id="blurLg" x="-50%" y="-50%" width="200%" height="200%"><feGaussianBlur stdDeviation="55"/></filter>
    <filter id="softGlow" x="-60%" y="-60%" width="220%" height="220%"><feGaussianBlur stdDeviation="1.6" result="b"/><feMerge><feMergeNode in="b"/><feMergeNode in="SourceGraphic"/></feMerge></filter>
    <filter id="noise" x="0" y="0" width="100%" height="100%"><feTurbulence type="fractalNoise" baseFrequency="0.85" numOctaves="2" stitchTiles="stitch" result="n"/><feColorMatrix in="n" type="saturate" values="0"/><feComponentTransfer><feFuncA type="linear" slope="0.5" intercept="0"/></feComponentTransfer></filter>
    <pattern id="noisePat" width="140" height="140" patternUnits="userSpaceOnUse"><rect width="140" height="140" filter="url(#noise)"/></pattern>
  </defs>

  <!-- ============================ BACKGROUND ============================ -->
  <g clip-path="url(#cardClip)">
    <rect x="0" y="0" width="1180" height="610" fill="url(#bgGrad)"/>

    <!-- soft radial glows (opacity pulse) -->
    <g filter="url(#blurLg)">
      <circle cx="255" cy="220" r="150" fill="url(#blobViolet)" opacity="0.9"><animate attributeName="opacity" values="0.7;1;0.7" dur="9s" repeatCount="indefinite"/></circle>
      <circle cx="800" cy="150" r="170" fill="url(#blobCyan)" opacity="0.85"><animate attributeName="opacity" values="1;0.65;1" dur="11s" repeatCount="indefinite"/></circle>
      <circle cx="990" cy="480" r="160" fill="url(#blobEmerald)" opacity="0.8"><animate attributeName="opacity" values="0.6;0.95;0.6" dur="13s" repeatCount="indefinite"/></circle>
      <circle cx="140" cy="510" r="130" fill="url(#blobCyan)" opacity="0.8"><animate attributeName="opacity" values="0.85;0.55;0.85" dur="10s" repeatCount="indefinite"/></circle>
    </g>

    <!-- noise overlay -->
    <rect x="0" y="0" width="1180" height="610" fill="url(#noisePat)" opacity="0.04"/>

    <!-- ambient particles -->
    <g fill="#64748B">
      <circle cx="360" cy="560" r="1.4" opacity="0.5"><animateTransform attributeName="transform" type="translate" values="0 0;-8 -420" dur="11s" repeatCount="indefinite"/><animate attributeName="opacity" values="0;0.5;0" dur="11s" repeatCount="indefinite"/></circle>
      <circle cx="540" cy="600" r="1.1" opacity="0.4"><animateTransform attributeName="transform" type="translate" values="0 0;10 -480" dur="14s" repeatCount="indefinite"/><animate attributeName="opacity" values="0;0.4;0" dur="14s" repeatCount="indefinite"/></circle>
      <circle cx="720" cy="580" r="1.5" opacity="0.5"><animateTransform attributeName="transform" type="translate" values="0 0;-6 -440" dur="12.5s" repeatCount="indefinite"/><animate attributeName="opacity" values="0;0.45;0" dur="12.5s" repeatCount="indefinite"/></circle>
      <circle cx="900" cy="600" r="1.2" opacity="0.4"><animateTransform attributeName="transform" type="translate" values="0 0;12 -500" dur="16s" repeatCount="indefinite"/><animate attributeName="opacity" values="0;0.4;0" dur="16s" repeatCount="indefinite"/></circle>
      <circle cx="1060" cy="560" r="1.3" opacity="0.5"><animateTransform attributeName="transform" type="translate" values="0 0;-10 -430" dur="13s" repeatCount="indefinite"/><animate attributeName="opacity" values="0;0.45;0" dur="13s" repeatCount="indefinite"/></circle>
      <circle cx="180" cy="600" r="1.1" opacity="0.4"><animateTransform attributeName="transform" type="translate" values="0 0;8 -520" dur="15s" repeatCount="indefinite"/><animate attributeName="opacity" values="0;0.4;0" dur="15s" repeatCount="indefinite"/></circle>
    </g>

    <!-- ============================ LEFT PANEL (ASCII terminal) ============================ -->
    <g>
      <rect x="22" y="22" width="430" height="566" rx="22" fill="url(#panelGrad)" fill-opacity="0.72" stroke="#0f172a" stroke-opacity="0.08"/>
      <rect x="22" y="22" width="430" height="120" rx="22" fill="url(#glassEdge)"/>

      <circle cx="50" cy="50" r="5" fill="#FF5F57"/>
      <circle cx="68" cy="50" r="5" fill="#FEBC2E"/>
      <circle cx="86" cy="50" r="5" fill="#28C840"/>
      <text x="108" y="55" font-family="SFMono-Regular, Consolas, Menlo, monospace" font-size="13" fill="#475569">~/reitar0 — zsh</text>
      <line x1="40" y1="70" x2="434" y2="70" stroke="#0f172a" stroke-opacity="0.06"/>

      <g clip-path="url(#leftClip)">
        <g font-family="SFMono-Regular, Consolas, Menlo, monospace" font-size="13" fill="url(#asciiGrad)" filter="url(#softGlow)">
          <animateTransform attributeName="transform" type="translate" additive="sum" values="0 -3;0 3;0 -3" dur="6s" repeatCount="indefinite"/>
          <text x="48" y="98"  opacity="0">$ ssh reitar0@dev<animate attributeName="opacity" to="1" begin="0.20s" dur="0.4s" fill="freeze"/></text>
          <text x="48" y="120" opacity="0">&gt; booting kernel...<animate attributeName="opacity" to="1" begin="0.32s" dur="0.4s" fill="freeze"/></text>
          <text x="48" y="142" opacity="0">┌─[ asanuri // core ]<animate attributeName="opacity" to="1" begin="0.44s" dur="0.4s" fill="freeze"/></text>
          <text x="48" y="164" opacity="0">│ fn main() -&gt; Result&lt;()&gt;<animate attributeName="opacity" to="1" begin="0.56s" dur="0.4s" fill="freeze"/></text>
          <text x="48" y="186" opacity="0">│   let mut ai = Engine;<animate attributeName="opacity" to="1" begin="0.68s" dur="0.4s" fill="freeze"/></text>
          <text x="48" y="208" opacity="0">│   ai.spawn(agents)?;<animate attributeName="opacity" to="1" begin="0.80s" dur="0.4s" fill="freeze"/></text>
          <text x="48" y="230" opacity="0">│   cargo build --release<animate attributeName="opacity" to="1" begin="0.92s" dur="0.4s" fill="freeze"/></text>
          <text x="48" y="252" opacity="0">│<animate attributeName="opacity" to="1" begin="1.04s" dur="0.4s" fill="freeze"/></text>
          <rect x="80" y="244" width="100" height="8" rx="4" fill="#d6e0ee" opacity="0"><animate attributeName="opacity" to="1" begin="1.04s" dur="0.4s" fill="freeze"/></rect>
          <rect x="80" y="244" width="0" height="8" rx="4" fill="url(#asciiGrad)" opacity="0"><animate attributeName="opacity" to="1" begin="1.04s" dur="0.4s" fill="freeze"/><animate attributeName="width" from="0" to="82" begin="1.2s" dur="0.9s" fill="freeze"/></rect>
          <text x="190" y="252" opacity="0">82%<animate attributeName="opacity" to="1" begin="1.15s" dur="0.4s" fill="freeze"/></text>
          <text x="48" y="274" opacity="0">│   kube::deploy(prod)<animate attributeName="opacity" to="1" begin="1.16s" dur="0.4s" fill="freeze"/></text>
          <text x="48" y="296" opacity="0">│   ● status: ONLINE<animate attributeName="opacity" to="1" begin="1.28s" dur="0.4s" fill="freeze"/></text>
          <text x="48" y="318" opacity="0">└─&gt; stack: rust · ts<animate attributeName="opacity" to="1" begin="1.40s" dur="0.4s" fill="freeze"/></text>
          <text x="48" y="340" opacity="0">01001101 0110 1010<animate attributeName="opacity" to="1" begin="1.52s" dur="0.4s" fill="freeze"/></text>
          <text x="48" y="362" opacity="0">&gt; _ awaiting input<animate attributeName="opacity" to="1" begin="1.64s" dur="0.4s" fill="freeze"/></text>
        </g>

        <rect x="190" y="351" width="8" height="14" fill="#0891B2" opacity="0">
          <animate attributeName="opacity" values="0;0;1;0;1;0;1" keyTimes="0;0.24;0.25;0.5;0.75;0.99;1" dur="1.6s" begin="1.7s" repeatCount="indefinite"/>
        </rect>

        <rect x="22" width="430" height="46" fill="url(#scanGrad)" opacity="0.7">
          <animate attributeName="y" values="20;560;20" dur="5s" repeatCount="indefinite"/>
        </rect>
      </g>
    </g>

    <!-- ============================ RIGHT PANEL (terminal) ============================ -->
    <g>
      <rect x="468" y="22" width="690" height="566" rx="22" fill="url(#panelGrad)" fill-opacity="0.72" stroke="#0f172a" stroke-opacity="0.08"/>
      <rect x="468" y="22" width="690" height="120" rx="22" fill="url(#glassEdge)"/>

      <circle cx="500" cy="50" r="5" fill="#FF5F57"/>
      <circle cx="518" cy="50" r="5" fill="#FEBC2E"/>
      <circle cx="536" cy="50" r="5" fill="#28C840"/>
      <text x="813" y="55" text-anchor="middle" font-family="SFMono-Regular, Consolas, Menlo, monospace" font-size="13" fill="#475569">asanuri@dev — zsh</text>
      <line x1="486" y1="70" x2="1140" y2="70" stroke="#0f172a" stroke-opacity="0.06"/>

      <!-- greeting -->
      <g opacity="0">
        <animate attributeName="opacity" to="1" begin="0.4s" dur="0.55s" fill="freeze"/>
        <animateTransform attributeName="transform" type="translate" from="0 10" to="0 0" begin="0.4s" dur="0.55s" fill="freeze"/>
        <text x="500" y="118" font-family="Segoe UI, Helvetica, Arial, sans-serif" font-size="33" font-weight="700" fill="#0F172A">Hi <tspan font-size="30">👋</tspan> I'm <tspan fill="url(#accentText)">Asanuri</tspan></text>
      </g>

      <!-- typing roles -->
      <g opacity="0">
        <animate attributeName="opacity" to="1" begin="0.9s" dur="0.5s" fill="freeze"/>
        <text x="500" y="162" font-family="SFMono-Regular, Consolas, Menlo, monospace" font-size="22" fill="#0891B2">&gt;</text>
        <g font-family="SFMono-Regular, Consolas, Menlo, monospace" font-size="22" fill="#0F172A">
          <g clip-path="url(#tp0)"><text x="526" y="162">AI Engineer</text></g>
          <g clip-path="url(#tp1)"><text x="526" y="162">Frontend Developer</text></g>
          <g clip-path="url(#tp2)"><text x="526" y="162">Rust Developer</text></g>
          <g clip-path="url(#tp3)"><text x="526" y="162">React Developer</text></g>
          <g clip-path="url(#tp4)"><text x="526" y="162">Backend Developer</text></g>
        </g>
        <rect y="143" width="12" height="24" fill="#0891B2">
          <animate attributeName="x" begin="1.1s" dur="15.5s" repeatCount="indefinite" calcMode="linear"
            keyTimes="0;0.0903;0.1548;0.2;0.2903;0.3548;0.4;0.4903;0.5548;0.6;0.6903;0.7548;0.8;0.8903;0.9548;1"
            values="526;676;676;526;770;770;526;716;716;526;730;730;526;756;756;526"/>
          <animate attributeName="opacity" values="1;0" keyTimes="0;0.5" calcMode="discrete" dur="1.05s" begin="1.1s" repeatCount="indefinite"/>
        </rect>
      </g>

      <!-- info rows -->
      <g font-family="Segoe UI, Helvetica, Arial, sans-serif" font-size="17" fill="#0F172A">
        <g opacity="0">
          <animate attributeName="opacity" to="1" begin="1.25s" dur="0.5s" fill="freeze"/>
          <animateTransform attributeName="transform" type="translate" from="0 8" to="0 0" begin="1.25s" dur="0.5s" fill="freeze"/>
          <path d="M508 198c0-4.4-3.6-8-8-8s-8 3.6-8 8c0 6 8 14 8 14s8-8 8-14zm-8 3a3 3 0 1 1 0-6 3 3 0 0 1 0 6z" fill="#0891B2"/>
          <text x="518" y="212">Moscow</text>
          <path d="M652 199l14-6 14 6-14 6-14-6zm4 4v6c0 2 4 4 10 4s10-2 10-4v-6l-10 4-10-4z" fill="#0891B2"/>
          <text x="686" y="212">KCHGU</text>
        </g>
        <g opacity="0">
          <animate attributeName="opacity" to="1" begin="1.5s" dur="0.5s" fill="freeze"/>
          <animateTransform attributeName="transform" type="translate" from="0 8" to="0 0" begin="1.5s" dur="0.5s" fill="freeze"/>
          <circle cx="500" cy="243" r="9" fill="none" stroke="#059669" stroke-width="2"/>
          <circle cx="500" cy="243" r="4" fill="#059669"/>
          <text x="518" y="249">Current focus: <tspan fill="#059669" font-weight="600">AI Fullstack Solutions</tspan></text>
        </g>
        <g opacity="0">
          <animate attributeName="opacity" to="1" begin="1.75s" dur="0.5s" fill="freeze"/>
          <animateTransform attributeName="transform" type="translate" from="0 8" to="0 0" begin="1.75s" dur="0.5s" fill="freeze"/>
          <rect x="491" y="272" width="18" height="13" rx="2.5" fill="none" stroke="#0891B2" stroke-width="1.8"/>
          <path d="M491.5 274l8.5 6 8.5-6" fill="none" stroke="#0891B2" stroke-width="1.8"/>
          <text x="518" y="285" fill="#475569">asanurireitaro@gmail.com</text>
        </g>
      </g>

      <!-- skills -->
      <g opacity="0">
        <animate attributeName="opacity" to="1" begin="2.0s" dur="0.5s" fill="freeze"/>
        <text x="500" y="328" font-family="SFMono-Regular, Consolas, Menlo, monospace" font-size="12" letter-spacing="3" fill="#475569">SKILLS</text>
        <line x1="560" y1="324" x2="1126" y2="324" stroke="#0f172a" stroke-opacity="0.07"/>
      </g>

      <!-- pills -->
      <g font-family="Segoe UI, Helvetica, Arial, sans-serif" font-size="15" fill="#0F172A" text-anchor="middle">
        <g opacity="0"><animate attributeName="opacity" to="1" begin="2.05s" dur="0.45s" fill="freeze"/><rect x="500" y="342" width="56" height="32" rx="16" fill="url(#pillGrad)" stroke="#06B6D4" stroke-opacity="0.45"><animate attributeName="stroke-opacity" values="0.3;0.8;0.3" dur="3.2s" begin="2.5s" repeatCount="indefinite"/></rect><text x="528" y="363">Rust</text></g>
        <g opacity="0"><animate attributeName="opacity" to="1" begin="2.10s" dur="0.45s" fill="freeze"/><rect x="569" y="342" width="58" height="32" rx="16" fill="url(#pillGrad)" stroke="#06B6D4" stroke-opacity="0.45"><animate attributeName="stroke-opacity" values="0.3;0.8;0.3" dur="3.4s" begin="2.6s" repeatCount="indefinite"/></rect><text x="598" y="363">Axum</text></g>
        <g opacity="0"><animate attributeName="opacity" to="1" begin="2.15s" dur="0.45s" fill="freeze"/><rect x="640" y="342" width="70" height="32" rx="16" fill="url(#pillGrad)" stroke="#06B6D4" stroke-opacity="0.45"><animate attributeName="stroke-opacity" values="0.3;0.8;0.3" dur="3.0s" begin="2.7s" repeatCount="indefinite"/></rect><text x="675" y="363">Docker</text></g>
        <g opacity="0"><animate attributeName="opacity" to="1" begin="2.20s" dur="0.45s" fill="freeze"/><rect x="723" y="342" width="100" height="32" rx="16" fill="url(#pillGrad)" stroke="#06B6D4" stroke-opacity="0.45"><animate attributeName="stroke-opacity" values="0.3;0.8;0.3" dur="3.6s" begin="2.8s" repeatCount="indefinite"/></rect><text x="773" y="363">Kubernetes</text></g>
        <g opacity="0"><animate attributeName="opacity" to="1" begin="2.25s" dur="0.45s" fill="freeze"/><rect x="836" y="342" width="48" height="32" rx="16" fill="url(#pillGrad)" stroke="#06B6D4" stroke-opacity="0.45"><animate attributeName="stroke-opacity" values="0.3;0.8;0.3" dur="3.1s" begin="2.9s" repeatCount="indefinite"/></rect><text x="860" y="363">Git</text></g>
        <g opacity="0"><animate attributeName="opacity" to="1" begin="2.30s" dur="0.45s" fill="freeze"/><rect x="897" y="342" width="62" height="32" rx="16" fill="url(#pillGrad)" stroke="#06B6D4" stroke-opacity="0.45"><animate attributeName="stroke-opacity" values="0.3;0.8;0.3" dur="3.3s" begin="3.0s" repeatCount="indefinite"/></rect><text x="928" y="363">Figma</text></g>
        <g opacity="0"><animate attributeName="opacity" to="1" begin="2.35s" dur="0.45s" fill="freeze"/><rect x="972" y="342" width="96" height="32" rx="16" fill="url(#pillGrad)" stroke="#06B6D4" stroke-opacity="0.45"><animate attributeName="stroke-opacity" values="0.3;0.8;0.3" dur="3.5s" begin="3.1s" repeatCount="indefinite"/></rect><text x="1020" y="363">JavaScript</text></g>
        <g opacity="0"><animate attributeName="opacity" to="1" begin="2.40s" dur="0.45s" fill="freeze"/><rect x="500" y="386" width="96" height="32" rx="16" fill="url(#pillGrad)" stroke="#06B6D4" stroke-opacity="0.45"><animate attributeName="stroke-opacity" values="0.3;0.8;0.3" dur="3.2s" begin="3.2s" repeatCount="indefinite"/></rect><text x="548" y="407">TypeScript</text></g>
        <g opacity="0"><animate attributeName="opacity" to="1" begin="2.45s" dur="0.45s" fill="freeze"/><rect x="609" y="386" width="54" height="32" rx="16" fill="url(#pillGrad)" stroke="#06B6D4" stroke-opacity="0.45"><animate attributeName="stroke-opacity" values="0.3;0.8;0.3" dur="3.4s" begin="3.3s" repeatCount="indefinite"/></rect><text x="636" y="407">Vue</text></g>
        <g opacity="0"><animate attributeName="opacity" to="1" begin="2.50s" dur="0.45s" fill="freeze"/><rect x="676" y="386" width="64" height="32" rx="16" fill="url(#pillGrad)" stroke="#06B6D4" stroke-opacity="0.45"><animate attributeName="stroke-opacity" values="0.3;0.8;0.3" dur="3.0s" begin="3.4s" repeatCount="indefinite"/></rect><text x="708" y="407">React</text></g>
        <g opacity="0"><animate attributeName="opacity" to="1" begin="2.55s" dur="0.45s" fill="freeze"/><rect x="753" y="386" width="78" height="32" rx="16" fill="url(#pillGrad)" stroke="#06B6D4" stroke-opacity="0.45"><animate attributeName="stroke-opacity" values="0.3;0.8;0.3" dur="3.6s" begin="3.5s" repeatCount="indefinite"/></rect><text x="792" y="407">Nuxt.js</text></g>
        <g opacity="0"><animate attributeName="opacity" to="1" begin="2.60s" dur="0.45s" fill="freeze"/><rect x="844" y="386" width="76" height="32" rx="16" fill="url(#pillGrad)" stroke="#06B6D4" stroke-opacity="0.45"><animate attributeName="stroke-opacity" values="0.3;0.8;0.3" dur="3.1s" begin="3.6s" repeatCount="indefinite"/></rect><text x="882" y="407">Next.js</text></g>
        <g opacity="0"><animate attributeName="opacity" to="1" begin="2.65s" dur="0.45s" fill="freeze"/><rect x="933" y="386" width="54" height="32" rx="16" fill="url(#pillGrad)" stroke="#06B6D4" stroke-opacity="0.45"><animate attributeName="stroke-opacity" values="0.3;0.8;0.3" dur="3.3s" begin="3.7s" repeatCount="indefinite"/></rect><text x="960" y="407">Vite</text></g>
      </g>

      <line x1="500" y1="462" x2="1126" y2="462" stroke="#0f172a" stroke-opacity="0.07">
        <animate attributeName="opacity" to="1" begin="2.7s" dur="0.5s" fill="freeze"/>
      </line>

      <!-- socials -->
      <g opacity="0">
        <animate attributeName="opacity" to="1" begin="2.8s" dur="0.55s" fill="freeze"/>
        <animateTransform attributeName="transform" type="translate" from="0 8" to="0 0" begin="2.8s" dur="0.55s" fill="freeze"/>
        <g font-family="Segoe UI, Helvetica, Arial, sans-serif" font-size="16" fill="#0F172A">
          <g transform="translate(500,498)">
            <path transform="scale(0.92)" fill="#0F172A" d="M12 .297c-6.63 0-12 5.373-12 12 0 5.303 3.438 9.8 8.205 11.385.6.113.82-.258.82-.577 0-.285-.01-1.04-.015-2.04-3.338.724-4.042-1.61-4.042-1.61C4.422 18.07 3.633 17.7 3.633 17.7c-1.087-.744.084-.729.084-.729 1.205.084 1.838 1.236 1.838 1.236 1.07 1.835 2.809 1.305 3.495.998.108-.776.417-1.305.76-1.605-2.665-.305-5.467-1.334-5.467-5.931 0-1.311.469-2.381 1.236-3.221-.124-.303-.535-1.524.117-3.176 0 0 1.008-.322 3.301 1.23A11.509 11.509 0 0 1 12 5.803c1.02.005 2.047.138 3.006.404 2.291-1.552 3.297-1.23 3.297-1.23.653 1.653.242 2.874.118 3.176.77.84 1.235 1.911 1.235 3.221 0 4.609-2.807 5.624-5.479 5.921.43.372.823 1.102.823 2.222 0 1.606-.014 2.898-.014 3.293 0 .322.216.694.825.576C20.565 22.092 24 17.592 24 12.297c0-6.627-5.373-12-12-12"/>
            <text x="34" y="17">reitar0</text>
          </g>
          <g transform="translate(660,498)">
            <path transform="scale(0.92)" fill="#0891B2" d="M11.944 0A12 12 0 0 0 0 12a12 12 0 0 0 12 12 12 12 0 0 0 12-12A12 12 0 0 0 12 0a12 12 0 0 0-.056 0zm4.962 7.224c.1-.002.321.023.465.14a.506.506 0 0 1 .171.325c.016.093.036.306.02.472-.18 1.898-.962 6.502-1.36 8.627-.168.9-.499 1.201-.82 1.23-.696.065-1.225-.46-1.9-.902-1.056-.693-1.653-1.124-2.678-1.8-1.185-.78-.417-1.21.258-1.91.177-.184 3.247-2.977 3.307-3.23.007-.032.014-.15-.056-.212s-.174-.041-.249-.024c-.106.024-1.793 1.14-5.061 3.345-.48.33-.913.49-1.302.48-.428-.008-1.252-.241-1.865-.44-.752-.245-1.349-.374-1.297-.789.027-.216.325-.437.893-.663 3.498-1.524 5.83-2.529 6.998-3.014 3.332-1.386 4.025-1.627 4.476-1.635z"/>
            <text x="34" y="17">@asanuri</text>
          </g>
        </g>
      </g>
    </g>
  </g>

  <!-- typing clip paths -->
  <defs>
    <clipPath id="tp0"><rect x="524" y="140" height="28" width="0"><animate attributeName="width" begin="1.1s" dur="15.5s" repeatCount="indefinite" values="0;150;150;0;0" keyTimes="0;0.0903;0.1548;0.2;1"/></rect></clipPath>
    <clipPath id="tp1"><rect x="524" y="140" height="28" width="0"><animate attributeName="width" begin="1.1s" dur="15.5s" repeatCount="indefinite" values="0;0;244;244;0;0" keyTimes="0;0.2;0.2903;0.3548;0.4;1"/></rect></clipPath>
    <clipPath id="tp2"><rect x="524" y="140" height="28" width="0"><animate attributeName="width" begin="1.1s" dur="15.5s" repeatCount="indefinite" values="0;0;190;190;0;0" keyTimes="0;0.4;0.4903;0.5548;0.6;1"/></rect></clipPath>
    <clipPath id="tp3"><rect x="524" y="140" height="28" width="0"><animate attributeName="width" begin="1.1s" dur="15.5s" repeatCount="indefinite" values="0;0;204;204;0;0" keyTimes="0;0.6;0.6903;0.7548;0.8;1"/></rect></clipPath>
    <clipPath id="tp4"><rect x="524" y="140" height="28" width="0"><animate attributeName="width" begin="1.1s" dur="15.5s" repeatCount="indefinite" values="0;0;230;230;0" keyTimes="0;0.8;0.8903;0.9548;1"/></rect></clipPath>
  </defs>

  <!-- ============================ BORDER ============================ -->
  <rect x="1" y="1" width="1178" height="608" rx="28" fill="none" stroke="#0f172a" stroke-opacity="0.10" stroke-width="1"/>
  <rect x="1" y="1" width="1178" height="608" rx="28" fill="none" stroke="url(#borderShimmer)" stroke-width="2" stroke-linecap="round" stroke-dasharray="300 3216" opacity="0.75">
    <animate attributeName="stroke-dashoffset" from="3516" to="0" dur="9s" repeatCount="indefinite"/>
  </rect>
</svg>
